# xmcd CD database file
#
# Track frame offsets:
#	150
#	14147
#	31137
#	45637
#	62775
#	78925
#	97262
#	122322
#	141907
#	157702
#	177520
#
# Disc length: 2626 seconds
#
# Revision: 0
# Processed by: cddbd v1.5.1PL0 Copyright (c) Steve Scherf et al.
# Submitted via: CDex 1.51
#
DISCID=8b0a400b
DTITLE=CADDILAC - SHAKE DOWN
DYEAR=1987
DGENRE=Rock
TTITLE0=Give Me Monney
TTITLE1=浮気なBig Wave
TTITLE2=憧れなHollywood
TTITLE3=PARADISE
TTITLE4=Mary Ann
TTITLE5=おわかれシェリー
TTITLE6=少年
TTITLE7=やってられない…
TTITLE8=My Heart
TTITLE9=RAIN
TTITLE10=青春のあいうえお
EXTD=YEAR: 1987
EXTT0=
EXTT1=
EXTT2=
EXTT3=
EXTT4=
EXTT5=
EXTT6=
EXTT7=
EXTT8=
EXTT9=
EXTT10=
PLAYORDER=
